<?xml version="1.0" standalone="no"?><!DOCTYPE svg PUBLIC "-//W3C//DTD SVG 1.1//EN" "http://www.w3.org/Graphics/SVG/1.1/DTD/svg11.dtd"><svg t="1732347209209" class="icon" viewBox="0 0 1260 1024" version="1.1" xmlns="http://www.w3.org/2000/svg" p-id="4410" width="246.09375" height="200" xmlns:xlink="http://www.w3.org/1999/xlink"><path d="M1144.516923 397.312c0.787692 22.055385 0.393846 44.740923-2.520615 68.529231-31.113846 255.291077-252.061538 493.883077-553.03877 493.883077-116.105846 0-250.722462-47.261538-271.596307-119.256616-17.880615-61.755077-24.654769-149.661538-110.670769-129.575384-107.756308 25.127385-202.436923-11.815385-205.272616-110.355693C-8.585846 248.595692 268.051692 40.566154 573.282462 4.962462c190.700308-22.291692 386.205538 41.038769 492.071384 174.08l79.241846 218.269538z m-322.008615-36.233846c32.374154 0 58.683077-26.860308 58.683077-59.864616 0-33.083077-26.308923-59.864615-58.683077-59.864615a59.313231 59.313231 0 0 0-58.604308 59.864615c0 33.004308 26.230154 59.864615 58.604308 59.864616z m-557.13477 149.661538c32.295385 0 58.604308-26.860308 58.604308-59.864615 0-33.083077-26.230154-59.864615-58.604308-59.864615a59.313231 59.313231 0 0 0-58.683076 59.864615c0 33.004308 26.308923 59.864615 58.683076 59.864615z m146.589539-269.390769a59.313231 59.313231 0 0 0-58.604308 59.864615c0 33.083077 26.230154 59.864615 58.604308 59.864616s58.683077-26.860308 58.683077-59.864616c0-33.083077-26.308923-59.864615-58.683077-59.864615z m205.272615-59.864615a59.313231 59.313231 0 0 0-58.604307 59.864615c0 33.083077 26.230154 59.864615 58.604307 59.864615s58.683077-26.860308 58.683077-59.864615c0-33.083077-26.308923-59.864615-58.683077-59.864615z" fill="currentColor" p-id="4411"></path><path d="M759.571692 674.264615c-17.171692 17.486769-126.818462 87.748923-126.818461 87.748923s65.693538-111.931077 82.865231-129.496615l474.427076-481.122461c17.171692-17.486769 44.977231-39.305846 62.227693-21.740308 17.092923 17.486769-1.181538 45.922462-18.353231 63.488L759.571692 674.264615z" fill="currentColor" p-id="4412"></path></svg>