<?xml version="1.0" standalone="no"?><!DOCTYPE svg PUBLIC "-//W3C//DTD SVG 1.1//EN" "http://www.w3.org/Graphics/SVG/1.1/DTD/svg11.dtd"><svg t="1681193798046" class="icon" viewBox="0 0 1024 1024" version="1.1" xmlns="http://www.w3.org/2000/svg" p-id="3368" xmlns:xlink="http://www.w3.org/1999/xlink" width="200" height="200"><path d="M830.075 64.949H314.418c-71.257 0-128.916 57.25-128.916 127.852v639.264c0 41.951-85.735 49.567-117.332 94.827-7.181 10.239-8.565 33.025 25.679 33.025h736.227c71.129 0 128.921-57.25 128.921-127.852V192.801c-0.002-70.602-57.793-127.852-128.922-127.852z m-526.2 155.546c11.914-17.031 27.265-20.469 46.055-10.234 17.031 10.234 46.055 29.864 86.992 58.848 6.796 5.117 11.074 8.555 12.793 10.234 17.031 17.071 19.589 34.981 7.676 53.73-15.352 18.79-32.422 21.348-51.172 7.676-17.071-13.632-45.215-34.941-84.434-63.965 1.679 3.438-1.719 1.719-10.234-5.117-15.352-15.352-17.911-32.382-7.676-51.172z m532.187 429.844H705.573v133.047c-1.719 22.147-13.673 34.102-35.82 35.82-23.907-1.719-36.7-13.673-38.379-35.82V650.339H503.445c-5.117 0-10.234-0.84-15.352-2.559 1.679 15.352-1.719 29.024-10.234 40.938-17.071 32.422-44.375 62.246-81.875 89.551-37.54 20.469-58.848 9.354-63.965-33.262V448.21c0-6.796-2.559-10.234-7.676-10.234h-28.145c-17.071-1.679-26.465-13.632-28.145-35.82 1.679-22.148 11.074-34.101 28.145-35.82h63.965c28.984-1.679 43.496 18.79 43.496 61.406v235.391c1.679 1.719 2.559 1.719 2.559 0 1.679-1.679 4.238-5.117 7.676-10.234 20.469-34.102 38.379-47.733 53.73-40.938 1.679-20.469 11.074-31.543 28.145-33.262h135.605V299.812H508.562c-18.789-1.679-29.023-13.632-30.703-35.82 1.679-20.469 11.914-31.542 30.703-33.262h322.383c17.03 1.719 26.426 12.793 28.145 33.262-1.719 22.188-11.114 34.141-28.145 35.82H705.573v278.887h130.488c20.469 1.719 31.543 13.673 33.262 35.82-1.719 22.187-12.793 34.141-33.261 35.82zM503.445 345.866c20.468-8.515 37.5-2.559 51.171 17.91 23.867 42.657 41.777 86.153 53.73 130.488 8.516 27.305 3.398 46.055-15.352 56.289-23.907 8.556-40.098 0-48.613-25.586-18.789-51.172-37.539-93.789-56.289-127.93-10.233-22.147-5.116-39.217 15.353-51.171z m350.527 38.379c-13.673 52.891-29.863 98.946-48.613 138.164-13.673 23.907-31.583 31.583-53.73 23.027-18.79-11.914-23.027-30.703-12.793-56.289 23.867-52.851 40.058-96.347 48.613-130.488 8.516-22.148 23.867-30.703 46.055-25.586 18.749 8.555 25.585 25.586 20.468 51.172z" fill="currentColor" p-id="3369"></path></svg>