<?xml version="1.0" standalone="no"?><!DOCTYPE svg PUBLIC "-//W3C//DTD SVG 1.1//EN" "http://www.w3.org/Graphics/SVG/1.1/DTD/svg11.dtd"><svg t="1724152882361" class="icon" viewBox="0 0 1024 1024" version="1.1" xmlns="http://www.w3.org/2000/svg" p-id="4358" data-darkreader-inline-fill="" xmlns:xlink="http://www.w3.org/1999/xlink" width="128" height="128"><path d="M622.56056 464.834794c0 27.928073 22.73684 50.64854 50.664913 50.64854 27.956725 0 50.693566-22.720468 50.693566-50.64854 0-27.928073-22.73684-50.66389-50.693566-50.66389C645.2974 414.171927 622.56056 436.907745 622.56056 464.834794" fill="currentColor" p-id="4359" data-darkreader-inline-fill="" style="--darkreader-inline-fill: #9e9689;"></path><path d="M931.254178 211.459063c0-40.637536-33.05893-73.698512-73.728188-73.698512L166.471964 137.76055c-40.637536 0-73.727165 33.059953-73.727165 73.698512l0 506.796488c0 40.637536 33.088606 73.696466 73.727165 73.696466l251.16846 0 94.343715 94.28641 94.315062-94.28641 251.226788 0c40.669258 0 73.728188-33.05893 73.728188-73.696466l0-82.560344-0.089028-1.282203L931.254178 211.459063zM875.96699 695.220928c0 22.88522-18.558681 41.444924-41.443901 41.444924L579.446623 736.665853l-67.462484 67.490114-67.430762-67.490114L189.506587 736.665853c-22.88522 0-41.4746-18.559705-41.4746-41.444924L148.031986 234.493685c0-22.88522 18.58938-41.488927 41.4746-41.488927l645.01548 0c22.88522 0 41.443901 18.603707 41.443901 41.488927l0 396.579247 0 36.161594L875.965967 695.220928z" fill="currentColor" p-id="4360" data-darkreader-inline-fill="" style="--darkreader-inline-fill: #5a6265;"></path><path d="M461.321272 464.834794c0 27.928073 22.735817 50.64854 50.662867 50.64854 27.929096 0 50.66389-22.720468 50.66389-50.64854 0-27.928073-22.734794-50.66389-50.66389-50.66389C484.057089 414.171927 461.321272 436.907745 461.321272 464.834794" fill="currentColor" p-id="4361" data-darkreader-inline-fill="" style="--darkreader-inline-fill: #9e9689;"></path><path d="M300.083008 464.834794c0 27.928073 22.735817 50.64854 50.66389 50.64854 27.927049 0 50.662867-22.720468 50.662867-50.64854 0-27.928073-22.735817-50.66389-50.662867-50.66389C322.817802 414.171927 300.083008 436.907745 300.083008 464.834794" fill="currentColor" p-id="4362" data-darkreader-inline-fill="" style="--darkreader-inline-fill: #9e9689;"></path></svg>
