<svg t="1729162434233" class="icon" viewBox="0 0 1024 1024" version="1.1" xmlns="http://www.w3.org/2000/svg" p-id="9456" width="128" height="128">
  <g transform="scale(-1, 1) translate(-1024, 0)">
    <path d="M930.3 336.7c-22.8-53.8-55.3-102.1-96.8-143.6S743.6 119 689.8 96.3c-55.7-23.6-114.9-35.5-175.9-35.5-78.9 0-156.7 20.7-224.8 59.8-46.5 26.7-87.9 61.6-122.2 102.6l-1.5-125.3c-0.2-20.7-17.2-37.3-37.9-37.1-20.6 0.2-37.2 17.2-37 37.9l3.1 268.7h255.6c20.7 0 37.5-16.8 37.5-37.5s-16.8-37.5-37.5-37.5H208c31.4-43.5 71.9-80.1 118.5-106.8 56.7-32.6 121.5-49.8 187.4-49.8 100.7 0 195.3 39.2 266.5 110.4 71.2 71.2 110.4 165.8 110.4 266.5S851.6 708 780.4 779.2 614.6 889.5 513.9 889.5c-76.1 0-149.4-22.6-212-65.2-61.2-41.7-108.4-99.7-136.5-167.9-7.9-19.1-29.8-28.2-49-20.3-19.1 7.9-28.2 29.8-20.3 49 33.8 81.7 90.3 151.3 163.6 201.2 75.1 51.2 163 78.2 254.2 78.2 61 0 120.2-12 175.9-35.5 53.8-22.8 102.1-55.3 143.6-96.8s74.1-89.8 96.8-143.6c23.6-55.7 35.5-114.9 35.5-175.9 0.1-61.1-11.9-120.2-35.4-176z" p-id="9457"></path>
    <path d="M512.9 639.6c-17.7 0-32.4-5-44.3-14.9-11.9-9.9-18.7-23.1-20.3-39.3h-36.9c1.7 26 11.8 47 30.5 63.1 18.6 16.1 42.2 24.1 70.7 24.1 31.2 0 56.5-9.5 75.9-28.5 19.5-19 29.2-43.8 29.2-74.4 0-29.6-9-53.8-27.1-72.6-18.1-18.8-41.4-28.2-70.1-28.2-13.9 0-26.1 2.1-36.7 6.4-10.6 4.2-19.5 10.7-26.9 19.3h-3.3L462 398h138.5v-33.6h-168L416 535h35.3c6.1-10.7 14.6-19 25.5-24.9 10.8-5.9 23.1-8.9 36.7-8.9 19.7 0 35.8 6.4 48.1 19.2 12.3 12.8 18.5 29.6 18.5 50.3 0 20.6-6.2 37.2-18.5 49.9-12.3 12.7-28.6 19-48.7 19z" p-id="9458"></path>
  </g>
  <text x="512" y="512" font-size="128" text-anchor="middle" fill="#000">5</text>
</svg>
