<svg 
 xmlns="http://www.w3.org/2000/svg"
 xmlns:xlink="http://www.w3.org/1999/xlink"
 width="819px" height="818px">
<path fill-rule="evenodd"  stroke="rgb(0, 0, 0)" stroke-width="0px" stroke-linecap="butt" stroke-linejoin="bevel" fill="currentColor"
 d="M670.1000,818.000 L148.000,818.000 C66.262,818.000 0.000,751.738 0.000,669.1000 L0.000,148.000 C0.000,66.262 66.262,-0.000 148.000,-0.000 L670.1000,-0.000 C752.738,-0.000 818.1000,66.262 818.1000,148.000 L818.1000,669.1000 C818.1000,751.738 752.738,818.000 670.1000,818.000 ZM595.637,378.191 L329.815,218.821 C303.154,202.837 269.246,222.043 269.247,253.129 L269.257,571.885 C269.258,602.971 303.166,622.176 329.827,606.189 L595.639,446.804 C621.546,431.269 621.545,393.724 595.637,378.191 Z"/>
</svg>