<?xml version="1.0" standalone="no"?><!DOCTYPE svg PUBLIC "-//W3C//DTD SVG 1.1//EN" "http://www.w3.org/Graphics/SVG/1.1/DTD/svg11.dtd"><svg t="1681193704311" class="icon" viewBox="0 0 1024 1024" version="1.1" xmlns="http://www.w3.org/2000/svg" p-id="3618" xmlns:xlink="http://www.w3.org/1999/xlink" width="200" height="200"><path d="M619.5 509.2h-91.8c-5.3 0-7.9 2.6-7.9 7.9v102.2h0.1c1.7 3.5 4.4 6.1 7.9 7.9h91.7c5.3 0 7.9-2.6 7.9-7.9V517.1c0-5.3-2.6-7.9-7.9-7.9z" fill="currentColor" p-id="3619"></path><path d="M512 0C229.2 0 0 229.2 0 512s229.2 512 512 512 512-229.2 512-512S794.8 0 512 0zM249.7 223.5h84.5c12.4 1.7 30.1 13.1 31.1 34-1 22.8-19.7 35-31.1 36.7h-80.8c-10.3-1.7-33.1-14-34.1-36.7 0.9-20.9 20-32.2 30.4-34z m145.4 575.1h-73.9c-2.8 1.5-5.5 2.1-8.3 1.6-16.9-4.2-24.4-11.6-28.7-25.9-1.7-3.7-2.8-7.8-2.9-12.4 0-0.8 0.1-1.7 0.2-2.4V448.9c0-5.3-2.6-7.9-7.9-7.9h-26.2c-19.2-1.7-29.7-14.8-31.5-39.3 1.8-22.7 12.2-34.9 31.5-36.7h62.9c31.5-1.7 46.3 16.6 44.6 55.1v307.8h40.4c11.9 1.7 31.3 13.1 32.2 34-1.2 22.7-21.5 35-32.4 36.7z m106.5-103.3c-36.7 0-55.1-17.5-55.1-52.4v-152c0-34.9 15.7-52.4 47.2-52.4h154.6c36.7 0 54.2 14.9 52.4 44.6V643c0 34.9-15.7 52.4-47.2 52.4H501.6z m-63-330.2c1.7-21 11.3-32.3 28.8-34h214.9c21 1.7 32.3 13.1 34 34-1.7 22.7-12.2 34.9-31.5 36.7H467.4c-17.5-1.8-27-14-28.8-36.7z m369.6 401.8l-0.5-0.3c-1.7 20.9-9.2 32.2-22.4 33.8H636.6c-12.5-1.7-26.4-14-27.7-36.7 1.3-21 17.6-34 27.7-34h98.9l-0.7-0.4V304.8c0-5.3-2.6-7.9-7.9-7.9H441.2c-19.2-1.7-29.7-14-31.5-36.7 1.8-22.7 12.2-34.9 31.5-36.7h309.3c36.7 1.7 55.9 16.6 57.6 44.6v498.8z" fill="currentColor" p-id="3620"></path></svg>