<?xml version="1.0" standalone="no"?><!DOCTYPE svg PUBLIC "-//W3C//DTD SVG 1.1//EN" "http://www.w3.org/Graphics/SVG/1.1/DTD/svg11.dtd"><svg t="1684480528633" class="icon" viewBox="0 0 1024 1024" version="1.1" xmlns="http://www.w3.org/2000/svg" p-id="1865" width="200" height="200" xmlns:xlink="http://www.w3.org/1999/xlink"><path d="M67.451228 241.072521c21.343097 0 38.629809-17.286712 38.629809-38.629809L106.081037 105.866143l96.575546 0c21.343097 0 38.629809-17.286712 38.629809-38.629809 0-21.343097-17.286712-38.629809-38.629809-38.629809L67.451228 28.606525c-21.343097 0-38.629809 17.286712-38.629809 38.629809l0 135.205355C28.821419 223.784786 46.108131 241.072521 67.451228 241.072521z" p-id="1866"></path><path d="M202.656583 917.100318l-96.575546 0 0-96.575546c0-21.343097-17.286712-38.629809-38.629809-38.629809-21.343097 0-38.629809 17.286712-38.629809 38.629809L28.821419 955.730127c0 21.343097 17.286712 38.629809 38.629809 38.629809l135.205355 0c21.343097 0 38.629809-17.286712 38.629809-38.629809C241.286392 934.38703 223.99968 917.100318 202.656583 917.100318z" p-id="1867"></path><path d="M955.945021 28.606525 820.739667 28.606525c-21.343097 0-38.629809 17.286712-38.629809 38.629809 0 21.343097 17.286712 38.629809 38.629809 38.629809l96.575546 0 0 96.575546c0 21.343097 17.286712 38.629809 38.629809 38.629809 21.343097 0 38.629809-17.286712 38.629809-38.629809L994.57483 67.236334C994.57483 45.893236 977.288119 28.606525 955.945021 28.606525z" p-id="1868"></path><path d="M955.945021 781.89394c-21.343097 0-38.629809 17.286712-38.629809 38.629809l0 96.575546-96.575546 0c-21.343097 0-38.629809 17.286712-38.629809 38.629809 0 21.343097 17.286712 38.629809 38.629809 38.629809l135.205355 0c21.343097 0 38.629809-17.286712 38.629809-38.629809L994.57483 820.524772C994.57483 799.181675 977.288119 781.89394 955.945021 781.89394z" p-id="1869"></path><path d="M376.49277 356.962971l270.41071 0c21.343097 0 38.629809-17.286712 38.629809-38.629809 0-21.343097-17.286712-38.629809-38.629809-38.629809L376.49277 279.703353c-21.343097 0-38.629809 17.286712-38.629809 38.629809C337.861938 339.675236 355.149673 356.962971 376.49277 356.962971z" p-id="1870"></path><path d="M801.423739 511.48323c0-21.343097-17.286712-38.629809-38.629809-38.629809L260.60232 472.853421c-21.343097 0-38.629809 17.286712-38.629809 38.629809 0 21.343097 17.286712 38.629809 38.629809 38.629809l502.19161 0C784.137027 550.113039 801.423739 532.826328 801.423739 511.48323z" p-id="1871"></path><path d="M646.903479 685.319417 376.49277 685.319417c-21.343097 0-38.629809 17.286712-38.629809 38.629809 0 21.343097 17.286712 38.629809 38.629809 38.629809l270.41071 0c21.343097 0 38.629809-17.286712 38.629809-38.629809C685.533288 702.606129 668.246577 685.319417 646.903479 685.319417z" p-id="1872"></path></svg>