<?xml version="1.0" standalone="no"?><!DOCTYPE svg PUBLIC "-//W3C//DTD SVG 1.1//EN" "http://www.w3.org/Graphics/SVG/1.1/DTD/svg11.dtd"><svg t="1729163157949" class="icon" viewBox="0 0 1204 1024" version="1.1" xmlns="http://www.w3.org/2000/svg" p-id="10443" xmlns:xlink="http://www.w3.org/1999/xlink" width="150.5" height="128"><path d="M822.7601 813.25a384.467 384.467 0 0 1-225.26 68.645 419.812 419.812 0 0 1-31.552-1.626c-4.215-0.361-8.43-1.084-12.706-1.565a430.049 430.049 0 0 1-24.326-3.734c-4.938-0.903-9.755-2.167-14.572-3.251-7.828-1.807-15.535-3.673-23.182-5.901-3.673-1.144-7.226-2.409-10.899-3.613a375.916 375.916 0 0 1-26.073-9.454c-1.927-0.783-3.793-1.686-5.66-2.529a388.862 388.862 0 0 1-29.324-14.03l-1.325-0.602a388.38 388.38 0 0 1-111.757-91.284c-1.505-1.807-3.01-3.854-4.516-5.72a376.518 376.518 0 0 1-84.36-237.244h89.237a6.53 6.53 0 0 0 5.72-3.372 6.082 6.082 0 0 0-0.3-6.443L161.9721 268.856a6.563 6.563 0 0 0-10.839 0L1.0801 491.467a6.202 6.202 0 0 0-0.301 6.503 6.596 6.596 0 0 0 5.72 3.312H95.7961a494.357 494.357 0 0 0 89.599 283.97c0.722 1.143 1.204 2.348 1.927 3.432 5.9 8.31 12.344 15.896 18.666 23.724 2.288 3.01 4.516 6.021 6.925 8.912a511.82 511.82 0 0 0 29.083 31.672c1.024 1.024 1.867 2.047 2.83 2.95a499.295 499.295 0 0 0 153.967 103.93c3.071 1.325 6.082 2.77 9.273 4.095 10.718 4.395 21.677 8.189 32.757 11.862 5.238 1.806 10.417 3.613 15.655 5.178 9.755 2.83 19.63 5.179 29.505 7.587 6.624 1.505 13.247 3.131 19.991 4.396 2.71 0.602 5.42 1.385 8.13 1.806 9.393 1.686 18.846 2.59 28.24 3.733 3.372 0.362 6.744 0.964 10.116 1.325 16.92 1.626 33.72 2.71 50.58 2.71 102.905 0 203.282-31.13 289.448-90.923a59.793 59.793 0 0 0 14.933-83.698 61.117 61.117 0 0 0-84.66-14.752zM1108.3561 501.343a494.418 494.418 0 0 0-89.177-283.307c-0.843-1.385-1.445-2.77-2.288-4.034-7.046-9.875-14.632-19.088-22.16-28.3l-2.649-3.373a500.318 500.318 0 0 0-189.072-140.54l-5.96-2.71a599.01 599.01 0 0 0-35.587-12.885c-4.396-1.445-8.671-3.01-13.067-4.275a492.732 492.732 0 0 0-31.793-8.129c-6.021-1.385-11.862-2.83-17.823-3.974-3.011-0.602-5.78-1.445-8.731-1.987-7.949-1.385-16.017-1.987-24.026-3.01-5.54-0.663-11.019-1.506-16.559-2.108A540.481 540.481 0 0 0 609.3021 0.723c-2.409 0-4.817-0.362-7.226-0.362l-1.325 0.12a505.798 505.798 0 0 0-289.027 90.502 59.732 59.732 0 0 0-14.933 83.698c19.268 27.217 57.203 33.84 84.66 14.752A384.467 384.467 0 0 1 604.8461 120.79c11.5 0.06 22.76 0.603 33.84 1.626l10.237 1.325c9.152 1.084 18.244 2.408 27.156 4.155 3.914 0.722 7.828 1.746 11.682 2.589 8.79 1.987 17.522 4.094 26.132 6.623 2.71 0.843 5.36 1.807 8.009 2.71a382.972 382.972 0 0 1 28.903 10.477l2.89 1.205c56.601 24.145 106.278 61.297 144.995 107.662l0.723 0.964a376.458 376.458 0 0 1 87.43 241.157h-89.236a6.503 6.503 0 0 0-5.72 3.372 6.142 6.142 0 0 0 0.3 6.443l149.993 222.671a6.443 6.443 0 0 0 5.42 2.83 6.541 6.541 0 0 0 5.419-2.83l149.933-222.671a6.202 6.202 0 0 0 0.301-6.443 6.503 6.503 0 0 0-5.72-3.372H1108.3561z" p-id="10444"></path></svg>