<?xml version="1.0" standalone="no"?><!DOCTYPE svg PUBLIC "-//W3C//DTD SVG 1.1//EN" "http://www.w3.org/Graphics/SVG/1.1/DTD/svg11.dtd"><svg class="icon" width="200px" height="200.00px" viewBox="0 0 1024 1024" version="1.1" xmlns="http://www.w3.org/2000/svg"><path d="M763.221333 177.493333H260.778667a136.533333 136.533333 0 0 0-136.533334 136.533334v502.442666a136.533333 136.533333 0 0 0 136.533334 136.533334h502.442666a136.533333 136.533333 0 0 0 136.533334-136.533334V314.026667a136.533333 136.533333 0 0 0-136.533334-136.533334z m-131.072 446.805334l-134.826666 77.824a68.266667 68.266667 0 0 1-102.4-59.050667v-155.648a68.266667 68.266667 0 0 1 102.4-59.050667l134.826666 77.824a68.266667 68.266667 0 0 1 0 118.101334z" fill="#282828" /></svg>